<?xml version="1.0" encoding="utf-8"?>
<!-- Generator: Adobe Illustrator 27.0.0, SVG Export Plug-In . SVG Version: 6.00 Build 0)  -->
<svg version="1.1" id="Layer_1" xmlns="http://www.w3.org/2000/svg" xmlns:xlink="http://www.w3.org/1999/xlink" x="0px" y="0px"
	 viewBox="0 0 945 841.89" style="enable-background:new 0 0 945 841.89;" xml:space="preserve">
<style type="text/css">
	.st0{fill-rule:evenodd;clip-rule:evenodd;fill:#FFFFFF;}
</style>
<path class="st0" d="M582.29,401.08c0.8,3.4,1.55,6.8,2.24,10.18c4.7-13.95,10.5-27.96,17.42-41.83
	c55.19-110.53,161.06-170.99,236.48-135.05c75.42,35.93,91.83,154.65,36.65,265.19C819.89,610.1,714.02,670.55,638.6,634.62
	c-29.97-14.28-50.63-41.63-61.17-76.35c-17.03,48.51-49.3,83.71-92.08,93.34c-81.88,18.45-171.28-63.78-199.64-183.7
	c-1.27-5.35-2.4-10.74-3.4-16.15c-3.1,8.95-6.77,17.69-11,26.16c-36.73,73.76-107.21,114.11-157.43,90.13
	c-50.22-23.98-61.14-103.23-24.4-176.99c36.73-73.76,107.21-114.11,157.43-90.13c16.04,7.66,28.07,20.96,35.82,37.92
	c13.32-62.78,49.25-110.06,99.92-121.47C464.53,198.93,553.93,281.16,582.29,401.08z"/>
</svg>
